<?xml version="1.0" encoding="utf-8"?>
<!-- Generator: Adobe Illustrator 26.0.1, SVG Export Plug-In . SVG Version: 6.00 Build 0)  -->
<svg version="1.1" id="Layer_1" xmlns="http://www.w3.org/2000/svg" xmlns:xlink="http://www.w3.org/1999/xlink" x="0px" y="0px"
	 viewBox="0 0 60 60" style="enable-background:new 0 0 60 60;" xml:space="preserve">
<style type="text/css">
	.st0{fill:#F44C71;}
	.st1{fill:#9C3BBF;}
	.st2{fill:#135BD9;}
	.st3{fill:#FFFFFF;}
	.st4{fill:#42D68C;}
</style>
<circle class="st0" cx="159" cy="-153" r="70"/>
<circle class="st1" cx="-21" cy="-153" r="70"/>
<circle class="st2" cx="-117" cy="30" r="30"/>
<g>
	<path class="st3" d="M203-126.84c-0.16,0.69-0.29,1.39-0.47,2.08c-1.7,6.55-7.51,11.14-14.27,11.14c-19.51,0.03-39.01,0.03-58.52,0
		c-7.96-0.01-14.59-6.49-14.74-14.28c-0.03-1.4,0.41-1.86,1.82-1.86c1.42,0,2.85,0,4.36,0c0-0.42,0-0.75,0-1.09
		c0-15.27-0.01-30.53,0-45.8c0-4.06,1.02-7.83,3.49-11.1c2.31-3.06,5.31-4.68,9.27-4.66c16.7,0.06,33.4,0.06,50.1,0
		c3.99-0.01,7.01,1.63,9.32,4.73c2.47,3.31,3.45,7.12,3.45,11.2c0,15.21,0,30.42,0,45.63c0,0.34,0,0.67,0,1.09
		c1.48,0,2.88,0.03,4.27-0.01c0.81-0.03,1.46,0.17,1.91,0.86C203-128.22,203-127.53,203-126.84z M194.07-129.75
		c0.02-0.31,0.05-0.51,0.05-0.7c0-15.35,0-30.7,0-46.05c0-2.91-0.55-5.7-2.01-8.24c-1.86-3.25-4.49-5.02-8.43-5
		c-16.64,0.08-33.28,0.05-49.92,0.02c-2.83,0-5.04,1.11-6.75,3.29c-2.36,2.99-3.14,6.48-3.14,10.21c0.01,15.18,0,30.36,0.01,45.53
		c0,0.3,0.03,0.6,0.05,0.94c0.44,0,0.78,0,1.12,0c8.53,0,17.07,0,25.6,0c1.42,0,1.82,0.41,1.82,1.85c0,1.14,0,2.27,0,3.4
		c4.38,0,8.66,0,12.92,0c0.04-0.11,0.07-0.17,0.07-0.22c0.01-1.06,0.01-2.12,0.02-3.18c0.01-1.5,0.37-1.86,1.89-1.86
		c8.53,0,17.07,0,25.6,0C193.31-129.75,193.65-129.75,194.07-129.75z M117.72-127.08c0.1,0.55,0.17,1.05,0.3,1.54
		c1.43,5.63,6.25,9.31,12.27,9.31c15.44,0.01,30.88,0,46.31,0c3.78,0,7.56,0.02,11.34-0.01c3.96-0.03,7.23-1.57,9.72-4.66
		c1.45-1.79,2.32-3.84,2.57-6.17c-10.73,0-21.39,0-32.1,0c0,1.25,0.01,2.42,0,3.59c-0.01,1.25-0.46,1.71-1.72,1.71
		c-4.95,0.01-9.91,0.01-14.86,0c-1.28,0-1.68-0.42-1.69-1.71c-0.01-1.19,0-2.38,0-3.62C139.11-127.08,128.46-127.08,117.72-127.08z"
		/>
	<path class="st3" d="M158.99-176.83c8.22,0,16.44,0,24.66,0c0.26,0,0.52-0.01,0.77,0.01c0.88,0.06,1.38,0.56,1.38,1.33
		c0,0.75-0.47,1.22-1.31,1.31c-0.28,0.03-0.57,0.02-0.86,0.02c-16.44,0-32.87,0-49.31,0c-0.37,0-0.75,0-1.11-0.06
		c-0.7-0.12-1.02-0.6-1.02-1.28c0-0.69,0.35-1.14,1.04-1.27c0.31-0.06,0.63-0.05,0.94-0.05
		C142.44-176.83,150.72-176.83,158.99-176.83z"/>
	<path class="st3" d="M159.01-166.71c-8.3,0-16.61,0-24.91,0c-0.29,0-0.58,0.03-0.86-0.02c-0.69-0.13-1.03-0.59-1.05-1.27
		c-0.01-0.67,0.27-1.18,0.97-1.32c0.36-0.07,0.74-0.07,1.11-0.07c16.46,0,32.93,0,49.39,0c0.37,0,0.75,0,1.11,0.06
		c0.7,0.12,1.02,0.62,1.02,1.29c0,0.71-0.37,1.19-1.11,1.31c-0.28,0.05-0.57,0.02-0.86,0.02
		C175.56-166.71,167.28-166.71,159.01-166.71z"/>
	<path class="st3" d="M160.24-151.56c0-1.35-0.01-2.69,0-4.04c0.01-1.1,0.44-1.65,1.3-1.66c0.86-0.02,1.35,0.53,1.36,1.61
		c0.02,2.61,0.03,5.21,0.01,7.82c-0.01,1.5,0.76,2.31,2.3,2.31c1.55,0.01,2.38-0.8,2.37-2.27c-0.01-2.66-0.01-5.33,0-7.99
		c0-0.94,0.48-1.46,1.29-1.48c0.82-0.02,1.37,0.49,1.38,1.41c0.02,2.84,0.08,5.67-0.02,8.51c-0.1,2.82-2.24,4.6-5.21,4.51
		c-2.86-0.09-4.76-1.97-4.78-4.77C160.23-148.93,160.24-150.24,160.24-151.56z"/>
	<path class="st3" d="M144.06-152.34c0,1.32,0.01,2.63,0,3.95c-0.04,2.8-2.1,4.71-5.05,4.68c-2.94-0.03-4.92-1.91-4.94-4.69
		c-0.01-2.72-0.01-5.44,0-8.16c0-1.03,0.44-1.56,1.28-1.57c0.85-0.01,1.32,0.5,1.33,1.52c0.01,2.61,0.03,5.21,0,7.82
		c-0.01,0.98,0.24,1.75,1.18,2.17c0.96,0.43,2.38,0.31,2.97-0.41c0.33-0.4,0.52-1.02,0.54-1.54c0.05-2.69,0.02-5.38,0.04-8.07
		c0.01-1,0.52-1.5,1.38-1.48c0.82,0.03,1.27,0.53,1.28,1.49C144.07-155.21,144.06-153.77,144.06-152.34z"/>
	<path class="st3" d="M176.7-150.06c-1.21-1.69-2.4-3.33-3.57-4.99c-0.53-0.75-0.45-1.39,0.17-1.89c0.67-0.54,1.42-0.43,1.99,0.35
		c1.01,1.39,1.99,2.79,3.06,4.31c0.49-0.65,0.94-1.25,1.39-1.85c0.5-0.66,0.99-1.33,1.49-2c0.76-1.02,1.39-1.22,2.13-0.68
		c0.75,0.55,0.75,1.26-0.02,2.3c-0.93,1.27-1.87,2.53-2.8,3.8c-0.17,0.23-0.33,0.46-0.5,0.71c1.16,1.64,2.31,3.24,3.44,4.86
		c0.52,0.76,0.38,1.59-0.3,2.02c-0.63,0.4-1.32,0.24-1.85-0.48c-0.99-1.36-1.96-2.73-3.01-4.18c-1.08,1.45-2.1,2.82-3.12,4.19
		c-0.36,0.49-0.78,0.84-1.45,0.66c-1.01-0.27-1.37-1.27-0.72-2.16C174.21-146.73,175.43-148.35,176.7-150.06z"/>
	<path class="st3" d="M152.28-140.03c-1.1-0.03-1.62-0.78-1.35-1.84c0.49-1.94,1.02-3.87,1.54-5.8c1.08-4.06,2.16-8.12,3.26-12.17
		c0.25-0.94,0.82-1.3,1.62-1.11c0.91,0.22,1.22,0.86,0.93,1.95c-0.66,2.51-1.34,5.02-2.02,7.53c-0.91,3.39-1.82,6.79-2.72,10.19
		C153.33-140.52,152.93-140.06,152.28-140.03z"/>
	<path class="st3" d="M146.64-151.02c0-1.83-0.01-3.67,0-5.5c0.01-1.06,0.49-1.62,1.36-1.61c0.87,0.01,1.34,0.56,1.34,1.63
		c0.01,3.69,0.01,7.39,0,11.08c0,1.03-0.53,1.63-1.36,1.63c-0.83-0.01-1.33-0.61-1.34-1.65
		C146.63-147.29,146.64-149.15,146.64-151.02z"/>
</g>
<g>
	<path class="st3" d="M-52.71-153c0-10.86-0.01-21.72,0-32.58c0-3.83,2.41-6.7,6.09-7.27c0.45-0.07,0.91-0.07,1.36-0.07
		c9.01,0,18.03,0.01,27.04-0.01c2.22,0,4.09,0.75,5.66,2.32c6.97,6.98,13.94,13.96,20.93,20.93c1.6,1.6,2.35,3.49,2.34,5.74
		c-0.01,14.44,0,28.89-0.01,43.33c0,4.57-2.96,7.53-7.52,7.53c-16.12,0-32.24,0-48.36,0c-4.57,0-7.54-2.96-7.54-7.51
		C-52.72-131.39-52.71-142.19-52.71-153z M-49.64-153.01c0,10.8,0,21.61,0,32.41c0,2.86,1.58,4.45,4.42,4.45c16.15,0,32.3,0,48.44,0
		c2.83,0,4.42-1.6,4.42-4.46c0-14.44,0-28.88,0.01-43.33c0-1.45-0.48-2.63-1.51-3.66c-6.93-6.9-13.84-13.82-20.75-20.74
		c-1.05-1.05-2.24-1.54-3.73-1.54c-8.9,0.02-17.8,0.01-26.69,0.01c-3.08,0-4.61,1.52-4.61,4.61
		C-49.64-174.5-49.64-163.75-49.64-153.01z"/>
	<path class="st3" d="M-19.47-148.46c2.75-2.76,5.32-5.33,7.89-7.91c0.2-0.2,0.39-0.41,0.62-0.58c0.64-0.48,1.47-0.41,2.01,0.15
		c0.51,0.52,0.57,1.34,0.13,1.95c-0.17,0.23-0.37,0.43-0.57,0.63c-3.36,3.36-6.71,6.72-10.07,10.07c-1.24,1.23-1.85,1.24-3.07,0.02
		c-3.36-3.36-6.71-6.71-10.07-10.07c-0.06-0.06-0.12-0.12-0.18-0.18c-0.84-0.86-0.94-1.79-0.25-2.46c0.68-0.65,1.56-0.56,2.39,0.26
		c0.45,0.44,0.89,0.88,1.33,1.33c2.01,2.01,4.02,4.02,6.03,6.03c0.19,0.19,0.4,0.37,0.74,0.69c0-0.46,0-0.76,0-1.06
		c0-7.33,0-14.67,0-22c0-0.28-0.02-0.57,0.03-0.85c0.12-0.75,0.74-1.26,1.49-1.26c0.75-0.01,1.38,0.49,1.51,1.24
		c0.05,0.3,0.03,0.62,0.04,0.94c0,7.31,0,14.61,0,21.92C-19.47-149.31-19.47-149.01-19.47-148.46z"/>
	<path class="st3" d="M-21.04-132.26c-3.5,0-6.99,0.01-10.49,0c-1.21,0-1.85-0.46-1.95-1.35c-0.1-0.87,0.43-1.57,1.3-1.69
		c0.28-0.04,0.57-0.03,0.85-0.03c6.88,0,13.75,0,20.63,0c0.28,0,0.57-0.01,0.85,0.03c0.78,0.1,1.29,0.66,1.32,1.42
		c0.03,0.81-0.45,1.42-1.27,1.56c-0.33,0.06-0.68,0.06-1.02,0.06C-14.22-132.25-17.63-132.26-21.04-132.26z"/>
</g>
<g>
	<path class="st3" d="M-99.46,17.94c0,8.04,0,16.08,0,24.11c-0.02,0.04-0.04,0.08-0.05,0.13c-0.48,2.15-1.91,3.3-4.11,3.3
		c-5.85,0-11.69,0-17.54,0c-3.14,0-6.28,0.01-9.42,0c-2.22-0.01-3.95-1.69-3.95-3.87c-0.01-7.73-0.01-15.46,0.01-23.19
		c0-0.54,0.13-1.13,0.36-1.62c0.73-1.55,2.01-2.27,3.71-2.27c8.96,0,17.92,0,26.89,0c0.13,0,0.25,0,0.38,0.01
		c1.58,0.13,2.73,0.89,3.39,2.34C-99.64,17.21-99.57,17.58-99.46,17.94z M-133.38,23.82c0,0.13,0,0.25,0,0.36
		c0,5.73,0,11.46,0,17.19c0,1.81,1.14,2.95,2.95,2.95c8.95,0,17.9,0,26.85,0c1.81,0,2.95-1.14,2.95-2.95c0-5.72,0-11.44,0-17.16
		c0-0.12,0-0.25,0-0.39C-111.55,23.82-122.43,23.82-133.38,23.82z M-133.36,22.62c10.93,0,21.82,0,32.72,0
		c0-1.5,0.02-2.97-0.01-4.44c-0.01-0.32-0.12-0.66-0.26-0.95c-0.55-1.1-1.48-1.55-2.68-1.55c-8.94,0-17.88,0-26.82,0
		c-0.07,0-0.14,0-0.21,0c-1.49,0.05-2.66,1.06-2.73,2.49C-133.42,19.65-133.36,21.12-133.36,22.62z"/>
	<path class="st3" d="M-115.42,27.85c-0.12,0.56-0.24,1.17-0.37,1.78c-0.63,3.01-1.27,6.02-1.9,9.03c-0.02,0.08-0.04,0.16-0.06,0.23
		c-0.1,0.38-0.37,0.59-0.68,0.52c-0.34-0.07-0.53-0.37-0.45-0.76c0.16-0.8,0.33-1.61,0.5-2.41c0.59-2.82,1.19-5.64,1.78-8.46
		c0.1-0.46,0.41-0.69,0.76-0.57C-115.56,27.31-115.43,27.51-115.42,27.85z"/>
	<path class="st3" d="M-123.55,33.27c0.85,0.72,1.66,1.41,2.48,2.11c0.23,0.2,0.48,0.39,0.7,0.6c0.28,0.26,0.32,0.61,0.11,0.85
		c-0.22,0.25-0.56,0.28-0.85,0.03c-1.21-1.02-2.42-2.05-3.62-3.08c-0.37-0.32-0.38-0.68-0.01-0.99c1.2-1.04,2.41-2.06,3.62-3.09
		c0.31-0.26,0.67-0.24,0.88,0.03c0.21,0.26,0.16,0.6-0.16,0.87c-0.91,0.78-1.82,1.56-2.73,2.33
		C-123.27,33.03-123.39,33.13-123.55,33.27z"/>
	<path class="st3" d="M-110.45,33.26c-0.9-0.77-1.78-1.52-2.66-2.26c-0.13-0.11-0.26-0.22-0.39-0.33c-0.39-0.34-0.47-0.68-0.23-0.96
		c0.24-0.28,0.58-0.25,0.99,0.09c0.99,0.84,1.98,1.69,2.97,2.53c0.18,0.16,0.37,0.3,0.54,0.47c0.32,0.31,0.34,0.66,0,0.95
		c-1.22,1.05-2.44,2.09-3.67,3.13c-0.29,0.24-0.64,0.2-0.85-0.06c-0.2-0.25-0.16-0.6,0.14-0.85c0.96-0.83,1.93-1.64,2.89-2.46
		C-110.64,33.43-110.57,33.37-110.45,33.26z"/>
	<path class="st3" d="M-132.1,19.18c0-1.01,0.82-1.83,1.82-1.83c0.99,0,1.83,0.83,1.83,1.83c0,0.99-0.84,1.83-1.83,1.84
		C-131.27,21.01-132.09,20.19-132.1,19.18z M-129.61,19.18c0-0.35-0.3-0.66-0.65-0.67c-0.36-0.01-0.68,0.3-0.68,0.67
		c0,0.36,0.29,0.66,0.65,0.67C-129.93,19.86-129.6,19.54-129.61,19.18z"/>
	<path class="st3" d="M-117.19,19.21c0,1.01-0.81,1.82-1.82,1.83c-1.01,0-1.83-0.81-1.83-1.82c0-1.01,0.81-1.83,1.82-1.83
		C-118.01,17.39-117.19,18.2-117.19,19.21z M-119.02,18.55c-0.36,0-0.65,0.29-0.66,0.65c-0.01,0.37,0.29,0.68,0.67,0.67
		c0.36,0,0.65-0.29,0.66-0.65C-118.35,18.85-118.64,18.55-119.02,18.55z"/>
	<path class="st3" d="M-126.46,19.19c0-1.01,0.81-1.82,1.83-1.82c1.01,0,1.82,0.82,1.82,1.83c0,1.01-0.83,1.82-1.83,1.82
		C-125.66,21.02-126.47,20.2-126.46,19.19z M-125.3,19.21c0.01,0.36,0.3,0.65,0.66,0.65c0.37,0,0.67-0.31,0.66-0.68
		c-0.01-0.36-0.3-0.65-0.66-0.65C-125.01,18.53-125.31,18.83-125.3,19.21z"/>
</g>
<g>
	<circle class="st4" cx="30" cy="30" r="30"/>
	<g>
		<path class="st3" d="M36.59,18.41c1.17-1.22,2.37-2.52,3.62-3.78c1.02-1.02,2.58-1.13,3.71-0.25c0.57,0.44,1.09,0.95,1.55,1.51
			c0.93,1.14,0.78,2.76-0.31,3.86c-1.12,1.12-2.25,2.23-3.37,3.34c-0.1,0.1-0.22,0.17-0.28,0.21c0.39,0.91,0.73,1.74,1.09,2.56
			c0.13,0.29,0.37,0.45,0.69,0.45c0.33,0,0.66,0,0.99,0.01c1.12,0.03,1.97,0.85,2,1.97c0.03,1.15,0.03,2.3,0,3.45
			c-0.03,1.11-0.86,1.91-1.97,1.95c-0.32,0.01-0.63,0-0.95,0.01c-0.38,0.01-0.63,0.2-0.78,0.56c-0.21,0.54-0.44,1.08-0.67,1.61
			c-0.16,0.37-0.1,0.69,0.17,0.97c0.22,0.23,0.45,0.45,0.66,0.68c0.72,0.8,0.73,1.94,0,2.72c-0.81,0.85-1.64,1.69-2.5,2.5
			c-0.76,0.72-1.9,0.72-2.69,0.02c-0.26-0.23-0.49-0.48-0.73-0.72c-0.28-0.27-0.59-0.32-0.94-0.16c-0.53,0.23-1.07,0.46-1.61,0.67
			c-0.36,0.14-0.54,0.4-0.55,0.78c-0.01,0.32,0,0.63-0.01,0.95c-0.04,1.13-0.87,1.95-2,1.97c-1.14,0.02-2.28,0.02-3.42,0
			c-1.14-0.02-1.96-0.88-1.98-2.02c0-0.29,0-0.58,0-0.87c-0.01-0.39-0.19-0.66-0.57-0.81c-0.54-0.21-1.08-0.44-1.61-0.66
			c-0.35-0.15-0.67-0.11-0.94,0.16c-0.23,0.22-0.44,0.45-0.68,0.67c-0.82,0.76-1.97,0.78-2.78,0.01c-0.85-0.81-1.69-1.64-2.5-2.5
			c-0.76-0.8-0.72-1.93,0.05-2.73c0.22-0.23,0.45-0.45,0.67-0.68c0.27-0.28,0.31-0.59,0.16-0.94c-0.23-0.53-0.46-1.07-0.67-1.61
			c-0.15-0.38-0.41-0.56-0.81-0.57c-0.29-0.01-0.58,0-0.87,0c-1.16-0.03-1.99-0.82-2.02-1.98c-0.03-1.14-0.03-2.28,0-3.42
			c0.03-1.17,0.89-1.97,2.06-1.98c0.29,0,0.58,0,0.87,0c0.37,0,0.62-0.19,0.76-0.52c0.23-0.56,0.46-1.12,0.69-1.68
			c0.14-0.34,0.09-0.64-0.17-0.91c-0.21-0.22-0.43-0.43-0.64-0.65c-0.8-0.86-0.81-2.02,0.01-2.86c0.77-0.79,1.55-1.56,2.34-2.34
			c0.86-0.84,2.05-0.83,2.92,0.01c0.19,0.19,0.38,0.37,0.56,0.57c0.28,0.29,0.6,0.34,0.97,0.19c0.55-0.23,1.09-0.46,1.64-0.68
			c0.36-0.14,0.53-0.41,0.54-0.79c0.01-0.3,0-0.61,0-0.91c0.02-1.11,0.84-1.95,1.94-1.97c1.18-0.02,2.35-0.02,3.53,0
			c1.07,0.02,1.88,0.85,1.92,1.92c0.01,0.33,0,0.66,0.01,0.99c0.01,0.38,0.19,0.64,0.55,0.78C34.97,17.73,35.67,18.03,36.59,18.41z
			 M40.64,24.33c-0.05-0.02-0.09-0.04-0.14-0.06c-0.28,0.31-0.55,0.63-0.85,0.92c-0.19,0.18-0.2,0.32-0.09,0.55
			c0.82,1.77,1.07,3.63,0.82,5.55c-0.76,5.88-6.2,9.93-12.03,8.99c-4.23-0.69-7.56-3.82-8.53-8.03c-0.95-4.08,0.71-8.43,4.2-10.83
			c3.12-2.14,6.47-2.47,10-1.11c0.11,0.04,0.3,0.08,0.37,0.02c0.36-0.33,0.7-0.68,1.09-1.07c-0.56-0.23-1.07-0.45-1.59-0.65
			c-0.94-0.36-1.41-1.03-1.42-2.02c0-0.28,0.01-0.56,0-0.84c-0.02-0.46-0.31-0.77-0.76-0.78c-1.14-0.01-2.28-0.01-3.42,0
			c-0.47,0.01-0.75,0.31-0.76,0.77c-0.01,0.32,0,0.63-0.01,0.95c-0.02,0.9-0.51,1.6-1.35,1.92c-0.54,0.21-1.08,0.43-1.62,0.64
			c-0.81,0.32-1.54,0.2-2.18-0.38c-0.23-0.21-0.45-0.45-0.68-0.67c-0.39-0.36-0.8-0.37-1.18,0.01c-0.78,0.76-1.55,1.53-2.31,2.31
			c-0.38,0.38-0.37,0.81,0,1.21c0.21,0.23,0.45,0.45,0.65,0.69c0.55,0.63,0.67,1.34,0.37,2.12c-0.22,0.56-0.45,1.13-0.67,1.69
			c-0.31,0.79-0.99,1.28-1.83,1.3c-0.32,0.01-0.63-0.01-0.95,0.01c-0.49,0.02-0.81,0.3-0.82,0.77c-0.02,1.14-0.02,2.28,0,3.42
			c0.01,0.46,0.32,0.73,0.79,0.75c0.32,0.01,0.63,0,0.95,0.01c0.91,0.02,1.58,0.52,1.91,1.37c0.2,0.53,0.42,1.06,0.63,1.58
			c0.33,0.82,0.21,1.56-0.39,2.21c-0.21,0.23-0.45,0.44-0.67,0.68c-0.34,0.37-0.34,0.79,0,1.15c0.77,0.79,1.54,1.57,2.32,2.35
			c0.39,0.39,0.8,0.39,1.2,0.01c0.22-0.21,0.42-0.44,0.65-0.64c0.65-0.6,1.39-0.73,2.21-0.4c0.54,0.22,1.08,0.43,1.62,0.64
			c0.8,0.31,1.31,0.99,1.34,1.85c0.01,0.32,0,0.63,0.01,0.95c0.01,0.5,0.31,0.82,0.8,0.82c1.11,0.01,2.23,0.02,3.34,0
			c0.49-0.01,0.78-0.34,0.8-0.84c0.01-0.3,0-0.61,0-0.91c0.01-0.89,0.5-1.57,1.32-1.89c0.54-0.21,1.08-0.43,1.62-0.65
			c0.81-0.33,1.54-0.2,2.18,0.39c0.24,0.22,0.46,0.47,0.7,0.69c0.38,0.35,0.79,0.36,1.15,0.01c0.81-0.78,1.61-1.58,2.4-2.38
			c0.37-0.37,0.35-0.79-0.01-1.18c-0.22-0.23-0.46-0.44-0.67-0.68c-0.57-0.63-0.7-1.36-0.39-2.15c0.22-0.56,0.44-1.13,0.67-1.69
			c0.3-0.74,0.85-1.19,1.65-1.27c0.39-0.04,0.78-0.01,1.18-0.03c0.46-0.02,0.77-0.31,0.78-0.76c0.02-1.13,0.01-2.25,0-3.38
			c-0.01-0.49-0.33-0.78-0.83-0.8c-0.27-0.01-0.53,0-0.8,0c-1-0.01-1.64-0.46-2.01-1.38C41.17,25.53,40.9,24.93,40.64,24.33z
			 M33.43,21.44c-3.15-1.38-8.06-0.88-10.97,3.12c-2.75,3.78-2.23,9.05,1.19,12.22c3.46,3.21,8.72,3.33,12.33,0.26
			c3.53-3,3.88-7.66,2.51-10.62c-0.1,0.1-0.21,0.19-0.3,0.29c-2.3,2.27-4.59,4.53-6.89,6.8c-0.14,0.14-0.31,0.28-0.49,0.33
			c-1.8,0.46-3.6,0.91-5.41,1.33c-0.65,0.15-1-0.23-0.83-0.88c0.43-1.7,0.84-3.41,1.29-5.11c0.08-0.29,0.25-0.59,0.45-0.8
			c2.23-2.24,4.48-4.47,6.73-6.69C33.13,21.6,33.26,21.55,33.43,21.44z M30.68,32.35c4.04-4,8.05-7.95,11.95-11.81
			c-1.1-1.14-2.17-2.26-3.26-3.39c-4.01,3.96-8.01,7.91-11.96,11.81C28.5,30.1,29.58,31.21,30.68,32.35z M43.62,19.66
			c0.3-0.32,0.52-0.58,0.76-0.82c0.37-0.39,0.53-0.85,0.48-1.38c-0.08-0.9-1.6-2.35-2.5-2.42c-1-0.08-1.49,0.64-2.01,1.16
			C41.43,17.34,42.48,18.46,43.62,19.66z M25.92,33.74c1.2-0.3,2.35-0.58,3.36-0.83c-0.81-0.87-1.64-1.76-2.49-2.66
			C26.5,31.42,26.22,32.55,25.92,33.74z"/>
		<path class="st3" d="M31.15,29.19c-0.2-0.17-0.43-0.28-0.5-0.45c-0.07-0.18-0.02-0.44,0.07-0.62c0.09-0.18,0.29-0.31,0.44-0.46
			c2.53-2.46,5.06-4.91,7.6-7.36c0.1-0.1,0.2-0.2,0.32-0.27c0.26-0.15,0.52-0.11,0.73,0.11c0.19,0.21,0.22,0.45,0.08,0.7
			c-0.06,0.11-0.16,0.2-0.25,0.29c-2.64,2.57-5.27,5.13-7.91,7.69C31.58,28.94,31.38,29.04,31.15,29.19z"/>
	</g>
</g>
</svg>
