<?xml version="1.0" encoding="utf-8"?>
<!-- Generator: Adobe Illustrator 26.0.1, SVG Export Plug-In . SVG Version: 6.00 Build 0)  -->
<svg version="1.1" id="Layer_1" xmlns="http://www.w3.org/2000/svg" xmlns:xlink="http://www.w3.org/1999/xlink" x="0px" y="0px"
	 viewBox="0 0 60 60" style="enable-background:new 0 0 60 60;" xml:space="preserve">
<style type="text/css">
	.st0{fill:#F44C71;}
	.st1{fill:#9C3BBF;}
	.st2{fill:#42D68C;}
	.st3{fill:#135BD9;}
	.st4{fill:#FFFFFF;}
</style>
<circle class="st0" cx="159" cy="-153" r="70"/>
<circle class="st1" cx="-21" cy="-153" r="70"/>
<circle class="st2" cx="-208" cy="-153" r="70"/>
<circle class="st3" cx="30" cy="30" r="30"/>
<g>
	<path class="st4" d="M203-126.84c-0.16,0.69-0.29,1.39-0.47,2.08c-1.7,6.55-7.51,11.14-14.27,11.14c-19.51,0.03-39.01,0.03-58.52,0
		c-7.96-0.01-14.59-6.49-14.74-14.28c-0.03-1.4,0.41-1.86,1.82-1.86c1.42,0,2.85,0,4.36,0c0-0.42,0-0.75,0-1.09
		c0-15.27-0.01-30.53,0-45.8c0-4.06,1.02-7.83,3.49-11.1c2.31-3.06,5.31-4.68,9.27-4.66c16.7,0.06,33.4,0.06,50.1,0
		c3.99-0.01,7.01,1.63,9.32,4.73c2.47,3.31,3.45,7.12,3.45,11.2c0,15.21,0,30.42,0,45.63c0,0.34,0,0.67,0,1.09
		c1.48,0,2.88,0.03,4.27-0.01c0.81-0.03,1.46,0.17,1.91,0.86C203-128.22,203-127.53,203-126.84z M194.07-129.75
		c0.02-0.31,0.05-0.51,0.05-0.7c0-15.35,0-30.7,0-46.05c0-2.91-0.55-5.7-2.01-8.24c-1.86-3.25-4.49-5.02-8.43-5
		c-16.64,0.08-33.28,0.05-49.92,0.02c-2.83,0-5.04,1.11-6.75,3.29c-2.36,2.99-3.14,6.48-3.14,10.21c0.01,15.18,0,30.36,0.01,45.53
		c0,0.3,0.03,0.6,0.05,0.94c0.44,0,0.78,0,1.12,0c8.53,0,17.07,0,25.6,0c1.42,0,1.82,0.41,1.82,1.85c0,1.14,0,2.27,0,3.4
		c4.38,0,8.66,0,12.92,0c0.04-0.11,0.07-0.17,0.07-0.22c0.01-1.06,0.01-2.12,0.02-3.18c0.01-1.5,0.37-1.86,1.89-1.86
		c8.53,0,17.07,0,25.6,0C193.31-129.75,193.65-129.75,194.07-129.75z M117.72-127.08c0.1,0.55,0.17,1.05,0.3,1.54
		c1.43,5.63,6.25,9.31,12.27,9.31c15.44,0.01,30.88,0,46.31,0c3.78,0,7.56,0.02,11.34-0.01c3.96-0.03,7.23-1.57,9.72-4.66
		c1.45-1.79,2.32-3.84,2.57-6.17c-10.73,0-21.39,0-32.1,0c0,1.25,0.01,2.42,0,3.59c-0.01,1.25-0.46,1.71-1.72,1.71
		c-4.95,0.01-9.91,0.01-14.86,0c-1.28,0-1.68-0.42-1.69-1.71c-0.01-1.19,0-2.38,0-3.62C139.11-127.08,128.46-127.08,117.72-127.08z"
		/>
	<path class="st4" d="M158.99-176.83c8.22,0,16.44,0,24.66,0c0.26,0,0.52-0.01,0.77,0.01c0.88,0.06,1.38,0.56,1.38,1.33
		c0,0.75-0.47,1.22-1.31,1.31c-0.28,0.03-0.57,0.02-0.86,0.02c-16.44,0-32.87,0-49.31,0c-0.37,0-0.75,0-1.11-0.06
		c-0.7-0.12-1.02-0.6-1.02-1.28c0-0.69,0.35-1.14,1.04-1.27c0.31-0.06,0.63-0.05,0.94-0.05
		C142.44-176.83,150.72-176.83,158.99-176.83z"/>
	<path class="st4" d="M159.01-166.71c-8.3,0-16.61,0-24.91,0c-0.29,0-0.58,0.03-0.86-0.02c-0.69-0.13-1.03-0.59-1.05-1.27
		c-0.01-0.67,0.27-1.18,0.97-1.32c0.36-0.07,0.74-0.07,1.11-0.07c16.46,0,32.93,0,49.39,0c0.37,0,0.75,0,1.11,0.06
		c0.7,0.12,1.02,0.62,1.02,1.29c0,0.71-0.37,1.19-1.11,1.31c-0.28,0.05-0.57,0.02-0.86,0.02
		C175.56-166.71,167.28-166.71,159.01-166.71z"/>
	<path class="st4" d="M160.24-151.56c0-1.35-0.01-2.69,0-4.04c0.01-1.1,0.44-1.65,1.3-1.66c0.86-0.02,1.35,0.53,1.36,1.61
		c0.02,2.61,0.03,5.21,0.01,7.82c-0.01,1.5,0.76,2.31,2.3,2.31c1.55,0.01,2.38-0.8,2.37-2.27c-0.01-2.66-0.01-5.33,0-7.99
		c0-0.94,0.48-1.46,1.29-1.48c0.82-0.02,1.37,0.49,1.38,1.41c0.02,2.84,0.08,5.67-0.02,8.51c-0.1,2.82-2.24,4.6-5.21,4.51
		c-2.86-0.09-4.76-1.97-4.78-4.77C160.23-148.93,160.24-150.24,160.24-151.56z"/>
	<path class="st4" d="M144.06-152.34c0,1.32,0.01,2.63,0,3.95c-0.04,2.8-2.1,4.71-5.05,4.68c-2.94-0.03-4.92-1.91-4.94-4.69
		c-0.01-2.72-0.01-5.44,0-8.16c0-1.03,0.44-1.56,1.28-1.57c0.85-0.01,1.32,0.5,1.33,1.52c0.01,2.61,0.03,5.21,0,7.82
		c-0.01,0.98,0.24,1.75,1.18,2.17c0.96,0.43,2.38,0.31,2.97-0.41c0.33-0.4,0.52-1.02,0.54-1.54c0.05-2.69,0.02-5.38,0.04-8.07
		c0.01-1,0.52-1.5,1.38-1.48c0.82,0.03,1.27,0.53,1.28,1.49C144.07-155.21,144.06-153.77,144.06-152.34z"/>
	<path class="st4" d="M176.7-150.06c-1.21-1.69-2.4-3.33-3.57-4.99c-0.53-0.75-0.45-1.39,0.17-1.89c0.67-0.54,1.42-0.43,1.99,0.35
		c1.01,1.39,1.99,2.79,3.06,4.31c0.49-0.65,0.94-1.25,1.39-1.85c0.5-0.66,0.99-1.33,1.49-2c0.76-1.02,1.39-1.22,2.13-0.68
		c0.75,0.55,0.75,1.26-0.02,2.3c-0.93,1.27-1.87,2.53-2.8,3.8c-0.17,0.23-0.33,0.46-0.5,0.71c1.16,1.64,2.31,3.24,3.44,4.86
		c0.52,0.76,0.38,1.59-0.3,2.02c-0.63,0.4-1.32,0.24-1.85-0.48c-0.99-1.36-1.96-2.73-3.01-4.18c-1.08,1.45-2.1,2.82-3.12,4.19
		c-0.36,0.49-0.78,0.84-1.45,0.66c-1.01-0.27-1.37-1.27-0.72-2.16C174.21-146.73,175.43-148.35,176.7-150.06z"/>
	<path class="st4" d="M152.28-140.03c-1.1-0.03-1.62-0.78-1.35-1.84c0.49-1.94,1.02-3.87,1.54-5.8c1.08-4.06,2.16-8.12,3.26-12.17
		c0.25-0.94,0.82-1.3,1.62-1.11c0.91,0.22,1.22,0.86,0.93,1.95c-0.66,2.51-1.34,5.02-2.02,7.53c-0.91,3.39-1.82,6.79-2.72,10.19
		C153.33-140.52,152.93-140.06,152.28-140.03z"/>
	<path class="st4" d="M146.64-151.02c0-1.83-0.01-3.67,0-5.5c0.01-1.06,0.49-1.62,1.36-1.61c0.87,0.01,1.34,0.56,1.34,1.63
		c0.01,3.69,0.01,7.39,0,11.08c0,1.03-0.53,1.63-1.36,1.63c-0.83-0.01-1.33-0.61-1.34-1.65
		C146.63-147.29,146.64-149.15,146.64-151.02z"/>
</g>
<g>
	<path class="st4" d="M-52.71-153c0-10.86-0.01-21.72,0-32.58c0-3.83,2.41-6.7,6.09-7.27c0.45-0.07,0.91-0.07,1.36-0.07
		c9.01,0,18.03,0.01,27.04-0.01c2.22,0,4.09,0.75,5.66,2.32c6.97,6.98,13.94,13.96,20.93,20.93c1.6,1.6,2.35,3.49,2.34,5.74
		c-0.01,14.44,0,28.89-0.01,43.33c0,4.57-2.96,7.53-7.52,7.53c-16.12,0-32.24,0-48.36,0c-4.57,0-7.54-2.96-7.54-7.51
		C-52.72-131.39-52.71-142.19-52.71-153z M-49.64-153.01c0,10.8,0,21.61,0,32.41c0,2.86,1.58,4.45,4.42,4.45c16.15,0,32.3,0,48.44,0
		c2.83,0,4.42-1.6,4.42-4.46c0-14.44,0-28.88,0.01-43.33c0-1.45-0.48-2.63-1.51-3.66c-6.93-6.9-13.84-13.82-20.75-20.74
		c-1.05-1.05-2.24-1.54-3.73-1.54c-8.9,0.02-17.8,0.01-26.69,0.01c-3.08,0-4.61,1.52-4.61,4.61
		C-49.64-174.5-49.64-163.75-49.64-153.01z"/>
	<path class="st4" d="M-19.47-148.46c2.75-2.76,5.32-5.33,7.89-7.91c0.2-0.2,0.39-0.41,0.62-0.58c0.64-0.48,1.47-0.41,2.01,0.15
		c0.51,0.52,0.57,1.34,0.13,1.95c-0.17,0.23-0.37,0.43-0.57,0.63c-3.36,3.36-6.71,6.72-10.07,10.07c-1.24,1.23-1.85,1.24-3.07,0.02
		c-3.36-3.36-6.71-6.71-10.07-10.07c-0.06-0.06-0.12-0.12-0.18-0.18c-0.84-0.86-0.94-1.79-0.25-2.46c0.68-0.65,1.56-0.56,2.39,0.26
		c0.45,0.44,0.89,0.88,1.33,1.33c2.01,2.01,4.02,4.02,6.03,6.03c0.19,0.19,0.4,0.37,0.74,0.69c0-0.46,0-0.76,0-1.06
		c0-7.33,0-14.67,0-22c0-0.28-0.02-0.57,0.03-0.85c0.12-0.75,0.74-1.26,1.49-1.26c0.75-0.01,1.38,0.49,1.51,1.24
		c0.05,0.3,0.03,0.62,0.04,0.94c0,7.31,0,14.61,0,21.92C-19.47-149.31-19.47-149.01-19.47-148.46z"/>
	<path class="st4" d="M-21.04-132.26c-3.5,0-6.99,0.01-10.49,0c-1.21,0-1.85-0.46-1.95-1.35c-0.1-0.87,0.43-1.57,1.3-1.69
		c0.28-0.04,0.57-0.03,0.85-0.03c6.88,0,13.75,0,20.63,0c0.28,0,0.57-0.01,0.85,0.03c0.78,0.1,1.29,0.66,1.32,1.42
		c0.03,0.81-0.45,1.42-1.27,1.56c-0.33,0.06-0.68,0.06-1.02,0.06C-14.22-132.25-17.63-132.26-21.04-132.26z"/>
</g>
<g>
	<path class="st4" d="M47.54,17.94c0,8.04,0,16.08,0,24.11c-0.02,0.04-0.04,0.08-0.05,0.13c-0.48,2.15-1.91,3.3-4.11,3.3
		c-5.85,0-11.69,0-17.54,0c-3.14,0-6.28,0.01-9.42,0c-2.22-0.01-3.95-1.69-3.95-3.87c-0.01-7.73-0.01-15.46,0.01-23.19
		c0-0.54,0.13-1.13,0.36-1.62c0.73-1.55,2.01-2.27,3.71-2.27c8.96,0,17.92,0,26.89,0c0.13,0,0.25,0,0.38,0.01
		c1.58,0.13,2.73,0.89,3.39,2.34C47.36,17.21,47.43,17.58,47.54,17.94z M13.62,23.82c0,0.13,0,0.25,0,0.36c0,5.73,0,11.46,0,17.19
		c0,1.81,1.14,2.95,2.95,2.95c8.95,0,17.9,0,26.85,0c1.81,0,2.95-1.14,2.95-2.95c0-5.72,0-11.44,0-17.16c0-0.12,0-0.25,0-0.39
		C35.45,23.82,24.57,23.82,13.62,23.82z M13.64,22.62c10.93,0,21.82,0,32.72,0c0-1.5,0.02-2.97-0.01-4.44
		c-0.01-0.32-0.12-0.66-0.26-0.95c-0.55-1.1-1.48-1.55-2.68-1.55c-8.94,0-17.88,0-26.82,0c-0.07,0-0.14,0-0.21,0
		c-1.49,0.05-2.66,1.06-2.73,2.49C13.58,19.65,13.64,21.12,13.64,22.62z"/>
	<path class="st4" d="M31.58,27.85c-0.12,0.56-0.24,1.17-0.37,1.78c-0.63,3.01-1.27,6.02-1.9,9.03c-0.02,0.08-0.04,0.16-0.06,0.23
		c-0.1,0.38-0.37,0.59-0.68,0.52c-0.34-0.07-0.53-0.37-0.45-0.76c0.16-0.8,0.33-1.61,0.5-2.41c0.59-2.82,1.19-5.64,1.78-8.46
		c0.1-0.46,0.41-0.69,0.76-0.57C31.44,27.31,31.57,27.51,31.58,27.85z"/>
	<path class="st4" d="M23.45,33.27c0.85,0.72,1.66,1.41,2.48,2.11c0.23,0.2,0.48,0.39,0.7,0.6c0.28,0.26,0.32,0.61,0.11,0.85
		c-0.22,0.25-0.56,0.28-0.85,0.03c-1.21-1.02-2.42-2.05-3.62-3.08c-0.37-0.32-0.38-0.68-0.01-0.99c1.2-1.04,2.41-2.06,3.62-3.09
		c0.31-0.26,0.67-0.24,0.88,0.03c0.21,0.26,0.16,0.6-0.16,0.87c-0.91,0.78-1.82,1.56-2.73,2.33C23.73,33.03,23.61,33.13,23.45,33.27
		z"/>
	<path class="st4" d="M36.55,33.26c-0.9-0.77-1.78-1.52-2.66-2.26c-0.13-0.11-0.26-0.22-0.39-0.33c-0.39-0.34-0.47-0.68-0.23-0.96
		c0.24-0.28,0.58-0.25,0.99,0.09c0.99,0.84,1.98,1.69,2.97,2.53c0.18,0.16,0.37,0.3,0.54,0.47c0.32,0.31,0.34,0.66,0,0.95
		c-1.22,1.05-2.44,2.09-3.67,3.13c-0.29,0.24-0.64,0.2-0.85-0.06c-0.2-0.25-0.16-0.6,0.14-0.85c0.96-0.83,1.93-1.64,2.89-2.46
		C36.36,33.43,36.43,33.37,36.55,33.26z"/>
	<path class="st4" d="M14.9,19.18c0-1.01,0.82-1.83,1.82-1.83c0.99,0,1.83,0.83,1.83,1.83c0,0.99-0.84,1.83-1.83,1.84
		C15.73,21.01,14.91,20.19,14.9,19.18z M17.39,19.18c0-0.35-0.3-0.66-0.65-0.67c-0.36-0.01-0.68,0.3-0.68,0.67
		c0,0.36,0.29,0.66,0.65,0.67C17.07,19.86,17.4,19.54,17.39,19.18z"/>
	<path class="st4" d="M29.81,19.21c0,1.01-0.81,1.82-1.82,1.83c-1.01,0-1.83-0.81-1.83-1.82c0-1.01,0.81-1.83,1.82-1.83
		C28.99,17.39,29.81,18.2,29.81,19.21z M27.98,18.55c-0.36,0-0.65,0.29-0.66,0.65c-0.01,0.37,0.29,0.68,0.67,0.67
		c0.36,0,0.65-0.29,0.66-0.65C28.65,18.85,28.36,18.55,27.98,18.55z"/>
	<path class="st4" d="M20.54,19.19c0-1.01,0.81-1.82,1.83-1.82c1.01,0,1.82,0.82,1.82,1.83c0,1.01-0.83,1.82-1.83,1.82
		C21.34,21.02,20.53,20.2,20.54,19.19z M21.7,19.21c0.01,0.36,0.3,0.65,0.66,0.65c0.37,0,0.67-0.31,0.66-0.68
		c-0.01-0.36-0.3-0.65-0.66-0.65C21.99,18.53,21.69,18.83,21.7,19.21z"/>
</g>
<g>
	<path class="st4" d="M-192.62-180.03c2.72-2.85,5.53-5.89,8.45-8.82c2.37-2.38,6.03-2.63,8.65-0.59c1.32,1.02,2.55,2.22,3.61,3.51
		c2.17,2.67,1.83,6.44-0.72,9c-2.6,2.62-5.24,5.2-7.87,7.79c-0.23,0.23-0.52,0.39-0.65,0.49c0.9,2.13,1.7,4.06,2.53,5.97
		c0.29,0.67,0.85,1.04,1.61,1.05c0.77,0.01,1.54-0.01,2.3,0.01c2.62,0.08,4.6,1.98,4.66,4.6c0.06,2.69,0.07,5.37,0,8.06
		c-0.07,2.6-2,4.45-4.61,4.55c-0.74,0.03-1.48,0-2.21,0.02c-0.89,0.03-1.48,0.48-1.81,1.31c-0.5,1.26-1.02,2.51-1.56,3.75
		c-0.37,0.86-0.24,1.61,0.4,2.27c0.51,0.53,1.05,1.04,1.54,1.59c1.68,1.86,1.71,4.54-0.01,6.35c-1.89,1.99-3.84,3.93-5.82,5.83
		c-1.77,1.69-4.44,1.67-6.28,0.05c-0.6-0.53-1.14-1.12-1.71-1.67c-0.64-0.63-1.37-0.74-2.19-0.38c-1.24,0.54-2.49,1.06-3.75,1.57
		c-0.83,0.34-1.26,0.94-1.28,1.83c-0.02,0.74,0.01,1.48-0.02,2.21c-0.1,2.63-2.02,4.55-4.66,4.59c-2.66,0.04-5.32,0.05-7.97,0
		c-2.66-0.05-4.58-2.05-4.62-4.71c-0.01-0.68,0.01-1.36-0.01-2.04c-0.02-0.92-0.45-1.55-1.32-1.9c-1.26-0.5-2.51-1.02-3.76-1.55
		c-0.83-0.35-1.55-0.25-2.2,0.38c-0.53,0.51-1.03,1.05-1.58,1.56c-1.91,1.77-4.6,1.82-6.48,0.03c-1.99-1.89-3.93-3.83-5.82-5.83
		c-1.78-1.87-1.69-4.5,0.11-6.38c0.51-0.53,1.04-1.04,1.55-1.58c0.62-0.65,0.72-1.38,0.37-2.2c-0.53-1.25-1.07-2.49-1.56-3.75
		c-0.34-0.88-0.96-1.32-1.88-1.34c-0.68-0.01-1.36,0.01-2.04-0.01c-2.71-0.07-4.65-1.91-4.72-4.62c-0.07-2.66-0.07-5.32,0-7.97
		c0.07-2.73,2.07-4.59,4.81-4.63c0.68-0.01,1.36,0,2.04,0c0.87,0,1.44-0.43,1.77-1.22c0.54-1.31,1.07-2.62,1.61-3.92
		c0.33-0.79,0.21-1.5-0.39-2.12c-0.49-0.51-1-1-1.49-1.52c-1.88-2-1.88-4.72,0.03-6.67c1.8-1.84,3.61-3.65,5.45-5.45
		c2.01-1.97,4.78-1.94,6.8,0.03c0.44,0.43,0.88,0.87,1.31,1.32c0.65,0.67,1.41,0.8,2.26,0.44c1.28-0.54,2.55-1.08,3.84-1.59
		c0.85-0.34,1.25-0.95,1.27-1.84c0.02-0.71,0-1.42,0.01-2.13c0.05-2.59,1.95-4.56,4.53-4.6c2.74-0.05,5.49-0.05,8.24,0
		c2.49,0.05,4.38,1.98,4.47,4.47c0.03,0.77,0,1.54,0.02,2.3c0.03,0.88,0.45,1.48,1.29,1.82
		C-196.41-181.63-194.76-180.93-192.62-180.03z M-183.18-166.22c-0.11-0.05-0.22-0.1-0.33-0.15c-0.66,0.72-1.28,1.48-1.98,2.14
		c-0.45,0.42-0.46,0.75-0.21,1.29c1.9,4.13,2.5,8.46,1.92,12.96c-1.77,13.71-14.46,23.18-28.07,20.97
		c-9.87-1.6-17.64-8.9-19.91-18.73c-2.21-9.51,1.65-19.68,9.8-25.28c7.27-5,15.11-5.76,23.34-2.6c0.27,0.1,0.71,0.19,0.86,0.06
		c0.85-0.76,1.63-1.59,2.53-2.51c-1.31-0.54-2.5-1.05-3.7-1.51c-2.18-0.84-3.29-2.39-3.3-4.72c0-0.65,0.02-1.3-0.01-1.95
		c-0.04-1.07-0.71-1.81-1.77-1.82c-2.66-0.03-5.32-0.03-7.97,0c-1.09,0.01-1.74,0.71-1.78,1.8c-0.03,0.74,0,1.48-0.01,2.21
		c-0.04,2.11-1.19,3.73-3.14,4.49c-1.26,0.49-2.52,0.99-3.78,1.5c-1.88,0.75-3.59,0.46-5.09-0.89c-0.55-0.49-1.04-1.05-1.58-1.55
		c-0.9-0.84-1.86-0.86-2.74,0.01c-1.81,1.78-3.61,3.58-5.39,5.39c-0.88,0.89-0.86,1.89,0,2.82c0.5,0.54,1.04,1.05,1.53,1.6
		c1.28,1.47,1.57,3.12,0.86,4.94c-0.52,1.32-1.05,2.63-1.57,3.94c-0.72,1.84-2.31,2.98-4.28,3.02c-0.74,0.02-1.48-0.02-2.21,0.01
		c-1.13,0.04-1.89,0.69-1.92,1.79c-0.05,2.66-0.05,5.32,0,7.97c0.02,1.08,0.76,1.71,1.84,1.75c0.74,0.03,1.48,0,2.21,0.02
		c2.11,0.06,3.7,1.21,4.45,3.19c0.47,1.24,0.98,2.46,1.48,3.69c0.77,1.91,0.49,3.64-0.91,5.16c-0.5,0.54-1.05,1.04-1.55,1.58
		c-0.79,0.85-0.8,1.85,0.01,2.69c1.79,1.85,3.59,3.67,5.41,5.49c0.91,0.91,1.88,0.9,2.8,0.02c0.51-0.49,0.99-1.02,1.51-1.5
		c1.52-1.39,3.24-1.71,5.16-0.93c1.25,0.51,2.51,1.01,3.78,1.5c1.87,0.72,3.05,2.31,3.12,4.32c0.03,0.74-0.01,1.48,0.01,2.21
		c0.03,1.16,0.72,1.9,1.88,1.92c2.6,0.03,5.2,0.04,7.8,0c1.14-0.02,1.83-0.79,1.86-1.95c0.02-0.71,0-1.42,0.01-2.13
		c0.03-2.08,1.16-3.67,3.09-4.41c1.27-0.48,2.52-1,3.78-1.51c1.89-0.76,3.59-0.46,5.09,0.9c0.57,0.51,1.08,1.09,1.64,1.61
		c0.88,0.81,1.83,0.84,2.68,0.02c1.89-1.83,3.75-3.68,5.6-5.55c0.86-0.87,0.83-1.84-0.02-2.74c-0.51-0.54-1.06-1.03-1.55-1.58
		c-1.32-1.48-1.63-3.16-0.9-5.02c0.51-1.32,1.04-2.63,1.57-3.94c0.71-1.73,1.98-2.77,3.85-2.97c0.91-0.1,1.83-0.03,2.74-0.08
		c1.08-0.05,1.8-0.71,1.82-1.78c0.04-2.63,0.03-5.26-0.01-7.88c-0.02-1.14-0.78-1.82-1.94-1.87c-0.62-0.02-1.24,0-1.86-0.01
		c-2.33-0.01-3.82-1.07-4.68-3.21C-181.94-163.43-182.58-164.82-183.18-166.22z M-200-172.97c-7.35-3.23-18.81-2.06-25.61,7.28
		c-6.42,8.82-5.21,21.11,2.78,28.52c8.06,7.49,20.36,7.77,28.78,0.6c8.23-7,9.05-17.88,5.85-24.77c-0.24,0.23-0.48,0.44-0.71,0.67
		c-5.36,5.29-10.72,10.58-16.09,15.86c-0.32,0.32-0.73,0.66-1.15,0.76c-4.2,1.07-8.41,2.11-12.62,3.11
		c-1.52,0.36-2.33-0.53-1.94-2.06c0.99-3.98,1.97-7.96,3.01-11.92c0.18-0.67,0.57-1.37,1.06-1.86c5.21-5.23,10.46-10.42,15.71-15.61
		C-200.71-172.6-200.39-172.73-200-172.97z M-206.42-147.52c9.44-9.33,18.77-18.55,27.88-27.55c-2.57-2.67-5.07-5.27-7.62-7.91
		c-9.35,9.23-18.68,18.45-27.9,27.56C-211.49-152.76-208.99-150.18-206.42-147.52z M-176.23-177.14c0.7-0.76,1.22-1.35,1.77-1.92
		c0.87-0.91,1.23-1.98,1.12-3.23c-0.19-2.11-3.73-5.48-5.84-5.64c-2.33-0.18-3.48,1.48-4.69,2.71
		C-181.34-182.54-178.87-179.93-176.23-177.14z M-217.51-144.27c2.81-0.7,5.49-1.36,7.85-1.95c-1.9-2.03-3.84-4.1-5.82-6.21
		C-216.17-149.69-216.82-147.05-217.51-144.27z"/>
	<path class="st4" d="M-205.31-154.89c-0.46-0.39-1.01-0.65-1.17-1.06c-0.16-0.41-0.05-1.03,0.16-1.46
		c0.21-0.43,0.67-0.73,1.03-1.08c5.91-5.73,11.81-11.46,17.72-17.18c0.23-0.22,0.46-0.47,0.74-0.63c0.61-0.34,1.21-0.25,1.69,0.26
		c0.45,0.48,0.52,1.05,0.19,1.63c-0.14,0.25-0.36,0.46-0.57,0.67c-6.15,5.99-12.3,11.97-18.46,17.94
		C-204.32-155.47-204.78-155.25-205.31-154.89z"/>
</g>
</svg>
