<?xml version="1.0" encoding="utf-8"?>
<!-- Generator: Adobe Illustrator 26.0.1, SVG Export Plug-In . SVG Version: 6.00 Build 0)  -->
<svg version="1.1" id="Layer_1" xmlns="http://www.w3.org/2000/svg" xmlns:xlink="http://www.w3.org/1999/xlink" x="0px" y="0px"
	 viewBox="0 0 60 60" style="enable-background:new 0 0 60 60;" xml:space="preserve">
<style type="text/css">
	.st0{fill:#F44C71;}
	.st1{fill:#FFFFFF;}
	.st2{fill:#9C3BBF;}
	.st3{fill:#135BD9;}
	.st4{fill:#42D68C;}
</style>
<g>
	<circle class="st0" cx="30" cy="30" r="30"/>
	<g>
		<path class="st1" d="M48.86,41.21c-0.07,0.3-0.12,0.6-0.2,0.89c-0.73,2.81-3.22,4.77-6.12,4.78c-8.36,0.01-16.72,0.01-25.08,0
			c-3.41-0.01-6.25-2.78-6.32-6.12c-0.01-0.6,0.18-0.8,0.78-0.8c0.61,0,1.22,0,1.87,0c0-0.18,0-0.32,0-0.47c0-6.54,0-13.09,0-19.63
			c0-1.74,0.44-3.35,1.5-4.76c0.99-1.31,2.28-2,3.97-2c7.16,0.03,14.31,0.03,21.47,0c1.71-0.01,3,0.7,3.99,2.03
			c1.06,1.42,1.48,3.05,1.48,4.8c0,6.52,0,13.04,0,19.55c0,0.14,0,0.29,0,0.47c0.63,0,1.23,0.01,1.83-0.01
			c0.35-0.01,0.62,0.07,0.82,0.37C48.86,40.62,48.86,40.91,48.86,41.21z M45.03,39.96c0.01-0.13,0.02-0.22,0.02-0.3
			c0-6.58,0-13.16,0-19.74c0-1.25-0.24-2.44-0.86-3.53c-0.8-1.39-1.93-2.15-3.61-2.14c-7.13,0.04-14.26,0.02-21.39,0.01
			c-1.21,0-2.16,0.48-2.89,1.41c-1.01,1.28-1.35,2.78-1.35,4.38c0,6.5,0,13.01,0,19.51c0,0.13,0.01,0.26,0.02,0.4
			c0.19,0,0.34,0,0.48,0c3.66,0,7.31,0,10.97,0c0.61,0,0.78,0.17,0.78,0.79c0,0.49,0,0.97,0,1.46c1.88,0,3.71,0,5.54,0
			c0.02-0.05,0.03-0.07,0.03-0.09c0-0.45,0.01-0.91,0.01-1.36c0-0.64,0.16-0.8,0.81-0.8c3.66,0,7.31,0,10.97,0
			C44.7,39.96,44.85,39.96,45.03,39.96z M12.31,41.11c0.04,0.23,0.07,0.45,0.13,0.66c0.61,2.41,2.68,3.99,5.26,3.99
			c6.62,0,13.23,0,19.85,0c1.62,0,3.24,0.01,4.86,0c1.7-0.01,3.1-0.67,4.17-2c0.62-0.77,1-1.65,1.1-2.64c-4.6,0-9.17,0-13.76,0
			c0,0.54,0,1.04,0,1.54c0,0.53-0.2,0.73-0.74,0.73c-2.12,0-4.25,0-6.37,0c-0.55,0-0.72-0.18-0.72-0.73c0-0.51,0-1.02,0-1.55
			C21.47,41.11,16.91,41.11,12.31,41.11z"/>
		<path class="st1" d="M30,19.79c3.52,0,7.04,0,10.57,0c0.11,0,0.22-0.01,0.33,0c0.38,0.03,0.59,0.24,0.59,0.57
			c0,0.32-0.2,0.52-0.56,0.56c-0.12,0.01-0.25,0.01-0.37,0.01c-7.04,0-14.09,0-21.13,0c-0.16,0-0.32,0-0.48-0.03
			c-0.3-0.05-0.44-0.26-0.44-0.55c0-0.29,0.15-0.49,0.44-0.55c0.13-0.03,0.27-0.02,0.4-0.02C22.9,19.79,26.45,19.79,30,19.79z"/>
		<path class="st1" d="M30,24.12c-3.56,0-7.12,0-10.68,0c-0.12,0-0.25,0.01-0.37-0.01c-0.29-0.06-0.44-0.25-0.45-0.54
			c-0.01-0.29,0.11-0.51,0.42-0.57c0.15-0.03,0.32-0.03,0.48-0.03c7.06,0,14.11,0,21.17,0c0.16,0,0.32,0,0.48,0.03
			c0.3,0.05,0.44,0.27,0.44,0.55c0,0.31-0.16,0.51-0.47,0.56c-0.12,0.02-0.24,0.01-0.37,0.01C37.1,24.12,33.55,24.12,30,24.12z"/>
		<path class="st1" d="M30.53,30.62c0-0.58,0-1.15,0-1.73c0-0.47,0.19-0.71,0.56-0.71c0.37-0.01,0.58,0.23,0.58,0.69
			c0.01,1.12,0.01,2.23,0,3.35c-0.01,0.64,0.32,0.99,0.99,0.99c0.67,0,1.02-0.34,1.01-0.97c-0.01-1.14,0-2.28,0-3.42
			c0-0.4,0.21-0.63,0.55-0.64c0.35-0.01,0.59,0.21,0.59,0.6c0.01,1.22,0.03,2.43-0.01,3.65c-0.04,1.21-0.96,1.97-2.23,1.93
			c-1.23-0.04-2.04-0.84-2.05-2.04C30.53,31.75,30.53,31.18,30.53,30.62z"/>
		<path class="st1" d="M23.6,30.28c0,0.56,0.01,1.13,0,1.69c-0.02,1.2-0.9,2.02-2.16,2.01c-1.26-0.01-2.11-0.82-2.12-2.01
			c0-1.17,0-2.33,0-3.5c0-0.44,0.19-0.67,0.55-0.67c0.37-0.01,0.57,0.21,0.57,0.65c0.01,1.12,0.01,2.23,0,3.35
			c-0.01,0.42,0.1,0.75,0.51,0.93c0.41,0.18,1.02,0.13,1.27-0.18c0.14-0.17,0.22-0.44,0.23-0.66c0.02-1.15,0.01-2.31,0.02-3.46
			c0-0.43,0.22-0.64,0.59-0.63c0.35,0.01,0.54,0.23,0.55,0.64C23.6,29.05,23.6,29.67,23.6,30.28z"/>
		<path class="st1" d="M37.59,31.26c-0.52-0.73-1.03-1.43-1.53-2.14c-0.23-0.32-0.19-0.59,0.07-0.81c0.29-0.23,0.61-0.18,0.85,0.15
			c0.43,0.59,0.85,1.2,1.31,1.85c0.21-0.28,0.4-0.53,0.6-0.79c0.21-0.28,0.42-0.57,0.64-0.86c0.33-0.44,0.59-0.52,0.91-0.29
			c0.32,0.24,0.32,0.54-0.01,0.99c-0.4,0.54-0.8,1.08-1.2,1.63c-0.07,0.1-0.14,0.2-0.22,0.31c0.5,0.7,0.99,1.39,1.47,2.08
			c0.22,0.32,0.16,0.68-0.13,0.87c-0.27,0.17-0.57,0.1-0.79-0.21c-0.42-0.58-0.84-1.17-1.29-1.79c-0.46,0.62-0.9,1.21-1.34,1.8
			c-0.16,0.21-0.34,0.36-0.62,0.28c-0.43-0.12-0.59-0.55-0.31-0.93C36.52,32.69,37.04,31.99,37.59,31.26z"/>
		<path class="st1" d="M27.12,35.56c-0.47-0.01-0.69-0.34-0.58-0.79c0.21-0.83,0.44-1.66,0.66-2.49c0.46-1.74,0.93-3.48,1.4-5.22
			c0.11-0.4,0.35-0.56,0.69-0.47c0.39,0.1,0.52,0.37,0.4,0.84c-0.28,1.08-0.58,2.15-0.86,3.23c-0.39,1.45-0.78,2.91-1.17,4.37
			C27.57,35.35,27.4,35.54,27.12,35.56z"/>
		<path class="st1" d="M24.7,30.85c0-0.79,0-1.57,0-2.36c0-0.45,0.21-0.69,0.58-0.69c0.37,0,0.57,0.24,0.58,0.7
			c0,1.58,0,3.17,0,4.75c0,0.44-0.23,0.7-0.58,0.7c-0.36,0-0.57-0.26-0.57-0.71C24.7,32.45,24.7,31.65,24.7,30.85z"/>
	</g>
</g>
<g>
	<circle class="st2" cx="-1" cy="-46" r="30"/>
	<g>
		<path class="st1" d="M-14.59-46c0-4.65,0-9.31,0-13.96c0-1.64,1.03-2.87,2.61-3.12c0.19-0.03,0.39-0.03,0.58-0.03
			c3.86,0,7.73,0,11.59,0c0.95,0,1.75,0.32,2.43,1c2.99,2.99,5.98,5.98,8.97,8.97c0.69,0.68,1.01,1.5,1,2.46c0,6.19,0,12.38,0,18.57
			c0,1.96-1.27,3.23-3.22,3.23c-6.91,0-13.82,0-20.73,0c-1.96,0-3.23-1.27-3.23-3.22C-14.59-36.74-14.59-41.37-14.59-46z M-13.28-46
			c0,4.63,0,9.26,0,13.89c0,1.22,0.68,1.91,1.89,1.91c6.92,0,13.84,0,20.76,0c1.21,0,1.89-0.69,1.89-1.91c0-6.19,0-12.38,0-18.57
			c0-0.62-0.21-1.13-0.65-1.57c-2.97-2.96-5.93-5.92-8.89-8.89c-0.45-0.45-0.96-0.66-1.6-0.66c-3.81,0.01-7.63,0-11.44,0.01
			c-1.32,0-1.97,0.65-1.97,1.97C-13.28-55.21-13.28-50.61-13.28-46z"/>
		<path class="st1" d="M-0.34-44.05c1.18-1.18,2.28-2.29,3.38-3.39c0.09-0.09,0.17-0.18,0.27-0.25c0.28-0.21,0.63-0.17,0.86,0.07
			c0.22,0.22,0.24,0.58,0.06,0.84c-0.07,0.1-0.16,0.18-0.25,0.27c-1.44,1.44-2.88,2.88-4.32,4.32c-0.53,0.53-0.79,0.53-1.32,0.01
			c-1.44-1.44-2.88-2.88-4.32-4.32c-0.03-0.03-0.05-0.05-0.08-0.08c-0.36-0.37-0.4-0.77-0.11-1.05c0.29-0.28,0.67-0.24,1.03,0.11
			c0.19,0.19,0.38,0.38,0.57,0.57c0.86,0.86,1.72,1.72,2.58,2.58c0.08,0.08,0.17,0.16,0.32,0.3c0-0.2,0-0.33,0-0.45
			c0-3.14,0-6.29,0-9.43c0-0.12-0.01-0.25,0.01-0.36c0.05-0.32,0.32-0.54,0.64-0.54c0.32,0,0.59,0.21,0.65,0.53
			c0.02,0.13,0.01,0.27,0.02,0.4c0,3.13,0,6.26,0,9.39C-0.34-44.42-0.34-44.29-0.34-44.05z"/>
		<path class="st1" d="M-1.02-37.11c-1.5,0-3,0-4.49,0c-0.52,0-0.79-0.2-0.83-0.58c-0.04-0.37,0.18-0.67,0.56-0.72
			c0.12-0.02,0.24-0.01,0.36-0.01c2.95,0,5.89,0,8.84,0c0.12,0,0.24,0,0.36,0.01c0.34,0.04,0.55,0.28,0.56,0.61
			c0.01,0.35-0.19,0.61-0.54,0.67c-0.14,0.02-0.29,0.02-0.44,0.02C1.91-37.11,0.44-37.11-1.02-37.11z"/>
	</g>
</g>
<g>
	<circle class="st3" cx="-137" cy="-48" r="30"/>
	<g>
		<path class="st1" d="M-119.46-60.06c0,8.04,0,16.08,0,24.11c-0.02,0.04-0.04,0.08-0.05,0.13c-0.48,2.15-1.91,3.3-4.11,3.3
			c-5.85,0-11.69,0-17.54,0c-3.14,0-6.28,0.01-9.42,0c-2.22-0.01-3.95-1.69-3.95-3.87c-0.01-7.73-0.01-15.46,0.01-23.19
			c0-0.54,0.13-1.13,0.36-1.62c0.73-1.55,2.01-2.27,3.71-2.27c8.96,0,17.92,0,26.89,0c0.13,0,0.25,0,0.38,0.01
			c1.58,0.13,2.73,0.89,3.39,2.34C-119.64-60.79-119.57-60.42-119.46-60.06z M-153.38-54.18c0,0.13,0,0.25,0,0.36
			c0,5.73,0,11.46,0,17.19c0,1.81,1.14,2.95,2.95,2.95c8.95,0,17.9,0,26.85,0c1.81,0,2.95-1.14,2.95-2.95c0-5.72,0-11.44,0-17.16
			c0-0.12,0-0.25,0-0.39C-131.55-54.18-142.43-54.18-153.38-54.18z M-153.36-55.38c10.93,0,21.82,0,32.72,0
			c0-1.5,0.02-2.97-0.01-4.44c-0.01-0.32-0.12-0.66-0.26-0.95c-0.55-1.1-1.48-1.55-2.68-1.55c-8.94,0-17.88,0-26.82,0
			c-0.07,0-0.14,0-0.21,0c-1.49,0.05-2.66,1.06-2.73,2.49C-153.42-58.35-153.36-56.88-153.36-55.38z"/>
		<path class="st1" d="M-135.42-50.15c-0.12,0.56-0.24,1.17-0.37,1.78c-0.63,3.01-1.27,6.02-1.9,9.03
			c-0.02,0.08-0.04,0.16-0.06,0.23c-0.1,0.38-0.37,0.59-0.68,0.52c-0.34-0.07-0.53-0.37-0.45-0.76c0.16-0.8,0.33-1.61,0.5-2.41
			c0.59-2.82,1.19-5.64,1.78-8.46c0.1-0.46,0.41-0.69,0.76-0.57C-135.56-50.69-135.43-50.49-135.42-50.15z"/>
		<path class="st1" d="M-143.55-44.73c0.85,0.72,1.66,1.41,2.48,2.11c0.23,0.2,0.48,0.39,0.7,0.6c0.28,0.26,0.32,0.61,0.11,0.85
			c-0.22,0.25-0.56,0.28-0.85,0.03c-1.21-1.02-2.42-2.05-3.62-3.08c-0.37-0.32-0.38-0.68-0.01-0.99c1.2-1.04,2.41-2.06,3.62-3.09
			c0.31-0.26,0.67-0.24,0.88,0.03c0.21,0.26,0.16,0.6-0.16,0.87c-0.91,0.78-1.82,1.56-2.73,2.33
			C-143.27-44.97-143.39-44.87-143.55-44.73z"/>
		<path class="st1" d="M-130.45-44.74c-0.9-0.77-1.78-1.52-2.66-2.26c-0.13-0.11-0.26-0.22-0.39-0.33
			c-0.39-0.34-0.47-0.68-0.23-0.96c0.24-0.28,0.58-0.25,0.99,0.09c0.99,0.84,1.98,1.69,2.97,2.53c0.18,0.16,0.37,0.3,0.54,0.47
			c0.32,0.31,0.34,0.66,0,0.95c-1.22,1.05-2.44,2.09-3.67,3.13c-0.29,0.24-0.64,0.2-0.85-0.06c-0.2-0.25-0.16-0.6,0.14-0.85
			c0.96-0.83,1.93-1.64,2.89-2.46C-130.64-44.57-130.57-44.63-130.45-44.74z"/>
		<path class="st1" d="M-152.1-58.82c0-1.01,0.82-1.83,1.82-1.83c0.99,0,1.83,0.83,1.83,1.83c0,0.99-0.84,1.83-1.83,1.84
			C-151.27-56.99-152.09-57.81-152.1-58.82z M-149.61-58.82c0-0.35-0.3-0.66-0.65-0.67c-0.36-0.01-0.68,0.3-0.68,0.67
			c0,0.36,0.29,0.66,0.65,0.67C-149.93-58.14-149.6-58.46-149.61-58.82z"/>
		<path class="st1" d="M-137.19-58.79c0,1.01-0.81,1.82-1.82,1.83c-1.01,0-1.83-0.81-1.83-1.82c0-1.01,0.81-1.83,1.82-1.83
			C-138.01-60.61-137.19-59.8-137.19-58.79z M-139.02-59.45c-0.36,0-0.65,0.29-0.66,0.65c-0.01,0.37,0.29,0.68,0.67,0.67
			c0.36,0,0.65-0.29,0.66-0.65C-138.35-59.15-138.64-59.45-139.02-59.45z"/>
		<path class="st1" d="M-146.46-58.81c0-1.01,0.81-1.82,1.83-1.82c1.01,0,1.82,0.82,1.82,1.83c0,1.01-0.83,1.82-1.83,1.82
			C-145.66-56.98-146.47-57.8-146.46-58.81z M-145.3-58.79c0.01,0.36,0.3,0.65,0.66,0.65c0.37,0,0.67-0.31,0.66-0.68
			c-0.01-0.36-0.3-0.65-0.66-0.65C-145.01-59.47-145.31-59.17-145.3-58.79z"/>
	</g>
</g>
<g>
	<circle class="st4" cx="-72" cy="-48" r="30"/>
	<g>
		<path class="st1" d="M-65.41-59.59c1.17-1.22,2.37-2.52,3.62-3.78c1.02-1.02,2.58-1.13,3.71-0.25c0.57,0.44,1.09,0.95,1.55,1.51
			c0.93,1.14,0.78,2.76-0.31,3.86c-1.12,1.12-2.25,2.23-3.37,3.34c-0.1,0.1-0.22,0.17-0.28,0.21c0.39,0.91,0.73,1.74,1.09,2.56
			c0.13,0.29,0.37,0.45,0.69,0.45c0.33,0,0.66,0,0.99,0.01c1.12,0.03,1.97,0.85,2,1.97c0.03,1.15,0.03,2.3,0,3.45
			c-0.03,1.11-0.86,1.91-1.97,1.95c-0.32,0.01-0.63,0-0.95,0.01c-0.38,0.01-0.63,0.2-0.78,0.56c-0.21,0.54-0.44,1.08-0.67,1.61
			c-0.16,0.37-0.1,0.69,0.17,0.97c0.22,0.23,0.45,0.45,0.66,0.68c0.72,0.8,0.73,1.94,0,2.72c-0.81,0.85-1.64,1.69-2.5,2.5
			c-0.76,0.72-1.9,0.72-2.69,0.02c-0.26-0.23-0.49-0.48-0.73-0.72c-0.28-0.27-0.59-0.32-0.94-0.16c-0.53,0.23-1.07,0.46-1.61,0.67
			c-0.36,0.14-0.54,0.4-0.55,0.78c-0.01,0.32,0,0.63-0.01,0.95c-0.04,1.13-0.87,1.95-2,1.97c-1.14,0.02-2.28,0.02-3.42,0
			c-1.14-0.02-1.96-0.88-1.98-2.02c0-0.29,0-0.58,0-0.87c-0.01-0.39-0.19-0.66-0.57-0.81c-0.54-0.21-1.08-0.44-1.61-0.66
			c-0.35-0.15-0.67-0.11-0.94,0.16c-0.23,0.22-0.44,0.45-0.68,0.67c-0.82,0.76-1.97,0.78-2.78,0.01c-0.85-0.81-1.69-1.64-2.5-2.5
			c-0.76-0.8-0.72-1.93,0.05-2.73c0.22-0.23,0.45-0.45,0.67-0.68c0.27-0.28,0.31-0.59,0.16-0.94c-0.23-0.53-0.46-1.07-0.67-1.61
			c-0.15-0.38-0.41-0.56-0.81-0.57c-0.29-0.01-0.58,0-0.87,0c-1.16-0.03-1.99-0.82-2.02-1.98c-0.03-1.14-0.03-2.28,0-3.42
			c0.03-1.17,0.89-1.97,2.06-1.98c0.29,0,0.58,0,0.87,0c0.37,0,0.62-0.19,0.76-0.52c0.23-0.56,0.46-1.12,0.69-1.68
			c0.14-0.34,0.09-0.64-0.17-0.91c-0.21-0.22-0.43-0.43-0.64-0.65c-0.8-0.86-0.81-2.02,0.01-2.86c0.77-0.79,1.55-1.56,2.34-2.34
			c0.86-0.84,2.05-0.83,2.92,0.01c0.19,0.19,0.38,0.37,0.56,0.57c0.28,0.29,0.6,0.34,0.97,0.19c0.55-0.23,1.09-0.46,1.64-0.68
			c0.36-0.14,0.53-0.41,0.54-0.79c0.01-0.3,0-0.61,0-0.91c0.02-1.11,0.84-1.95,1.94-1.97c1.18-0.02,2.35-0.02,3.53,0
			c1.07,0.02,1.88,0.85,1.92,1.92c0.01,0.33,0,0.66,0.01,0.99c0.01,0.38,0.19,0.64,0.55,0.78C-67.03-60.27-66.33-59.97-65.41-59.59z
			 M-61.36-53.67c-0.05-0.02-0.09-0.04-0.14-0.06c-0.28,0.31-0.55,0.63-0.85,0.92c-0.19,0.18-0.2,0.32-0.09,0.55
			c0.82,1.77,1.07,3.63,0.82,5.55c-0.76,5.88-6.2,9.93-12.03,8.99c-4.23-0.69-7.56-3.82-8.53-8.03c-0.95-4.08,0.71-8.43,4.2-10.83
			c3.12-2.14,6.47-2.47,10-1.11c0.11,0.04,0.3,0.08,0.37,0.02c0.36-0.33,0.7-0.68,1.09-1.07c-0.56-0.23-1.07-0.45-1.59-0.65
			c-0.94-0.36-1.41-1.03-1.42-2.02c0-0.28,0.01-0.56,0-0.84c-0.02-0.46-0.31-0.77-0.76-0.78c-1.14-0.01-2.28-0.01-3.42,0
			c-0.47,0.01-0.75,0.31-0.76,0.77c-0.01,0.32,0,0.63-0.01,0.95c-0.02,0.9-0.51,1.6-1.35,1.92c-0.54,0.21-1.08,0.43-1.62,0.64
			c-0.81,0.32-1.54,0.2-2.18-0.38c-0.23-0.21-0.45-0.45-0.68-0.67c-0.39-0.36-0.8-0.37-1.18,0.01c-0.78,0.76-1.55,1.53-2.31,2.31
			c-0.38,0.38-0.37,0.81,0,1.21c0.21,0.23,0.45,0.45,0.65,0.69c0.55,0.63,0.67,1.34,0.37,2.12c-0.22,0.56-0.45,1.13-0.67,1.69
			c-0.31,0.79-0.99,1.28-1.83,1.3c-0.32,0.01-0.63-0.01-0.95,0.01c-0.49,0.02-0.81,0.3-0.82,0.77c-0.02,1.14-0.02,2.28,0,3.42
			c0.01,0.46,0.32,0.73,0.79,0.75c0.32,0.01,0.63,0,0.95,0.01c0.91,0.02,1.58,0.52,1.91,1.37c0.2,0.53,0.42,1.06,0.63,1.58
			c0.33,0.82,0.21,1.56-0.39,2.21c-0.21,0.23-0.45,0.44-0.67,0.68c-0.34,0.37-0.34,0.79,0,1.15c0.77,0.79,1.54,1.57,2.32,2.35
			c0.39,0.39,0.8,0.39,1.2,0.01c0.22-0.21,0.42-0.44,0.65-0.64c0.65-0.6,1.39-0.73,2.21-0.4c0.54,0.22,1.08,0.43,1.62,0.64
			c0.8,0.31,1.31,0.99,1.34,1.85c0.01,0.32,0,0.63,0.01,0.95c0.01,0.5,0.31,0.82,0.8,0.82c1.11,0.01,2.23,0.02,3.34,0
			c0.49-0.01,0.78-0.34,0.8-0.84c0.01-0.3,0-0.61,0-0.91c0.01-0.89,0.5-1.57,1.32-1.89c0.54-0.21,1.08-0.43,1.62-0.65
			c0.81-0.33,1.54-0.2,2.18,0.39c0.24,0.22,0.46,0.47,0.7,0.69c0.38,0.35,0.79,0.36,1.15,0.01c0.81-0.78,1.61-1.58,2.4-2.38
			c0.37-0.37,0.35-0.79-0.01-1.18c-0.22-0.23-0.46-0.44-0.67-0.68c-0.57-0.63-0.7-1.36-0.39-2.15c0.22-0.56,0.44-1.13,0.67-1.69
			c0.3-0.74,0.85-1.19,1.65-1.27c0.39-0.04,0.78-0.01,1.18-0.03c0.46-0.02,0.77-0.31,0.78-0.76c0.02-1.13,0.01-2.25,0-3.38
			c-0.01-0.49-0.33-0.78-0.83-0.8c-0.27-0.01-0.53,0-0.8,0c-1-0.01-1.64-0.46-2.01-1.38C-60.83-52.47-61.1-53.07-61.36-53.67z
			 M-68.57-56.56c-3.15-1.38-8.06-0.88-10.97,3.12c-2.75,3.78-2.23,9.05,1.19,12.22c3.46,3.21,8.72,3.33,12.33,0.26
			c3.53-3,3.88-7.66,2.51-10.62c-0.1,0.1-0.21,0.19-0.3,0.29c-2.3,2.27-4.59,4.53-6.89,6.8c-0.14,0.14-0.31,0.28-0.49,0.33
			c-1.8,0.46-3.6,0.91-5.41,1.33c-0.65,0.15-1-0.23-0.83-0.88c0.43-1.7,0.84-3.41,1.29-5.11c0.08-0.29,0.25-0.59,0.45-0.8
			c2.23-2.24,4.48-4.47,6.73-6.69C-68.87-56.4-68.74-56.45-68.57-56.56z M-71.32-45.65c4.04-4,8.05-7.95,11.95-11.81
			c-1.1-1.14-2.17-2.26-3.26-3.39c-4.01,3.96-8.01,7.91-11.96,11.81C-73.5-47.9-72.42-46.79-71.32-45.65z M-58.38-58.34
			c0.3-0.32,0.52-0.58,0.76-0.82c0.37-0.39,0.53-0.85,0.48-1.38c-0.08-0.9-1.6-2.35-2.5-2.42c-1-0.08-1.49,0.64-2.01,1.16
			C-60.57-60.66-59.52-59.54-58.38-58.34z M-76.08-44.26c1.2-0.3,2.35-0.58,3.36-0.83c-0.81-0.87-1.64-1.76-2.49-2.66
			C-75.5-46.58-75.78-45.45-76.08-44.26z"/>
		<path class="st1" d="M-70.85-48.81c-0.2-0.17-0.43-0.28-0.5-0.45c-0.07-0.18-0.02-0.44,0.07-0.62c0.09-0.18,0.29-0.31,0.44-0.46
			c2.53-2.46,5.06-4.91,7.6-7.36c0.1-0.1,0.2-0.2,0.32-0.27c0.26-0.15,0.52-0.11,0.73,0.11c0.19,0.21,0.22,0.45,0.08,0.7
			c-0.06,0.11-0.16,0.2-0.25,0.29c-2.64,2.57-5.27,5.13-7.91,7.69C-70.42-49.06-70.62-48.96-70.85-48.81z"/>
	</g>
</g>
</svg>
